HIERARCHY
ROOT Hips
{
	OFFSET	0.00	0.00	0.00
	CHANNELS 6 Xposition Yposition Zposition Zrotation Xrotation Yrotation
	JOINT LeftUpLeg
	{
		OFFSET	 0.126116	-0.014019	-0.065224
		CHANNELS 3 Zrotation Xrotation Yrotation
		JOINT LeftLeg
		{
			OFFSET	 0.000000	 0.000000	 0.569914
			CHANNELS 3 Zrotation Xrotation Yrotation
			JOINT LeftFoot
			{
				OFFSET	 0.000000	 0.000000	 0.544423
				CHANNELS 3 Zrotation Xrotation Yrotation
				JOINT LeftToeBase
				{
					OFFSET	 0.000000	 0.000000	 0.207117
					CHANNELS 3 Zrotation Xrotation Yrotation
					End Site
					{
						OFFSET	 0.000000	 0.000000	 0.207117
					}
				}
			}
		}
	}
	JOINT RightUpLeg
	{
		OFFSET	-0.124023	-0.008373	-0.065224
		CHANNELS 3 Zrotation Xrotation Yrotation
		JOINT RightLeg
		{
			OFFSET	 0.000000	 0.000000	 0.570047
			CHANNELS 3 Zrotation Xrotation Yrotation
			JOINT RightFoot
			{
				OFFSET	 0.000000	 0.000000	 0.544354
				CHANNELS 3 Zrotation Xrotation Yrotation
				JOINT RightToeBase
				{
					OFFSET	 0.000000	 0.000000	 0.207540
					CHANNELS 3 Zrotation Xrotation Yrotation
					End Site
					{
						OFFSET	 0.000000	 0.000000	 0.207540
					}
				}
			}
		}
	}
	JOINT Spine
	{
		OFFSET	 0.000184	-0.007763	 0.117403
		CHANNELS 3 Zrotation Xrotation Yrotation
		JOINT Spine1
		{
			OFFSET	 0.000000	 0.000000	 0.137269
			CHANNELS 3 Zrotation Xrotation Yrotation
			JOINT Spine2
			{
				OFFSET	 0.000000	 0.000000	 0.156879
				CHANNELS 3 Zrotation Xrotation Yrotation
				JOINT LeftShoulder
				{
					OFFSET	 0.080501	-0.002496	 0.160144
					CHANNELS 3 Zrotation Xrotation Yrotation
					JOINT LeftArm
					{
						OFFSET	 0.000000	 0.000000	 0.164363
						CHANNELS 3 Zrotation Xrotation Yrotation
						JOINT LeftForeArm
						{
							OFFSET	 0.000000	 0.000000	 0.364576
							CHANNELS 3 Zrotation Xrotation Yrotation
							JOINT LeftHand
							{
								OFFSET	 0.000000	 0.000000	 0.360812
								CHANNELS 3 Zrotation Xrotation Yrotation
								JOINT LeftHandIndex1
								{
									OFFSET	 0.000000	 0.000000	 0.086006
									CHANNELS 3 Zrotation Xrotation Yrotation
									JOINT LeftHandIndex2
									{
										OFFSET	 0.000000	 0.000000	 0.047236
										CHANNELS 3 Zrotation Xrotation Yrotation
										JOINT LeftHandIndex3
										{
											OFFSET	-0.004284	-0.000551	 0.038166
											CHANNELS 3 Zrotation Xrotation Yrotation
											End Site
											{
												OFFSET	-0.004284	-0.000551	 0.038166
											}
										}
									}
								}
							}
						}
					}
				}
				JOINT Neck
				{
					OFFSET	 0.000000	 0.000000	 0.176489
					CHANNELS 3 Zrotation Xrotation Yrotation
					JOINT Head
					{
						OFFSET	 0.000000	-0.001747	 0.077940
						CHANNELS 3 Zrotation Xrotation Yrotation
						End Site
						{
							OFFSET	 0.000000	-0.001747	 0.077940
						}
					}
				}
				JOINT RightShoulder
				{
					OFFSET	-0.080363	 0.000306	 0.159706
					CHANNELS 3 Zrotation Xrotation Yrotation
					JOINT RightArm
					{
						OFFSET	 0.000000	 0.000000	 0.164196
						CHANNELS 3 Zrotation Xrotation Yrotation
						JOINT RightForeArm
						{
							OFFSET	 0.000000	 0.000000	 0.365611
							CHANNELS 3 Zrotation Xrotation Yrotation
							JOINT RightHand
							{
								OFFSET	 0.000000	 0.000000	 0.360648
								CHANNELS 3 Zrotation Xrotation Yrotation
								JOINT RightHandIndex1
								{
									OFFSET	 0.000000	 0.000000	 0.069977
									CHANNELS 3 Zrotation Xrotation Yrotation
									JOINT RightHandIndex2
									{
										OFFSET	 0.000000	 0.000000	 0.052305
										CHANNELS 3 Zrotation Xrotation Yrotation
										JOINT RightHandIndex3
										{
											OFFSET	 0.009002	-0.000782	 0.042196
											CHANNELS 3 Zrotation Xrotation Yrotation
											End Site
											{
												OFFSET	 0.009002	-0.000782	 0.042196
											}
										}
									}
								}
							}
						}
					}
				}
			}
		}
	}
}
MOTION
Frames:    6
Frame Time: 0.03333334
-0.058055	-2.272442	 1.163340	 5.280881	-0.969143	-2.913992	 29.440010	-13.440190	-178.709900	 1.212059	-48.974720	 0.648325	 126.662900	 82.846370	-130.864200	-2.369219	 31.646330	-0.070632	-38.872570	-38.661420	 178.668300	 11.807310	-53.117630	 10.108630	-13.329240	 78.059100	 21.871300	 2.358935	 33.005330	 0.103343	-28.178730	 9.263131	 1.896947	-1.592204	 0.084493	-0.972769	 1.035761	 0.702858	 0.903738	-94.005520	 59.017080	 175.238200	 5.479863	 24.255450	-40.096900	 17.839740	-3.759061	-10.499000	-10.836620	-4.763055	-8.922114	-4.867484	 19.290970	-2.789752	-3.880469	 21.486330	 2.201679	-4.807100	 5.559213	 0.146166	-0.059878	-5.089700	 0.201367	-0.943685	 3.619917	 2.769193	 89.754650	 61.679300	 179.934300	-18.521510	 49.550020	 13.875180	-21.301490	-3.827694	 10.531290	 7.260054	 8.478437	-1.340087	 6.287563	 24.352420	-0.540385	 1.949898	 44.174780	-7.050434	 0.635397	 23.795420	 3.513332
-0.061125	-2.339410	 1.157598	 6.253704	 0.191420	-3.125637	 27.870350	-11.139440	 179.946300	 1.681559	-47.967660	 0.987097	 147.908800	 82.711750	-151.873900	-2.366529	 32.082780	-0.080561	-42.859910	-40.962680	 172.981300	 11.347790	-42.810830	 8.293046	-31.974240	 79.137050	 39.465090	 2.360435	 32.782310	 0.098179	-35.531940	 8.357353	 1.798065	-1.854781	 0.440883	-0.895558	 1.224247	 0.178254	 1.004867	-94.296770	 58.976910	 174.622700	 3.107538	 20.702840	-40.748420	 20.425050	-5.121961	-12.026640	-10.561710	-5.396907	-9.433066	-4.852558	 19.661540	-2.812029	-3.858751	 21.763070	 2.179612	-4.795603	 5.694642	 0.138235	-0.012064	-5.156272	 0.290400	-0.609712	 3.399648	 2.667691	 89.609340	 61.856550	 179.585000	-18.154180	 51.477280	 11.196680	-25.869690	-5.209446	 12.051230	 7.046452	 9.178323	-2.366288	 6.250470	 21.944610	-0.595916	 2.195389	 42.067010	-7.267269	 1.147513	 21.484540	 3.265776
-0.066335	-2.426148	 1.145295	 6.599878	 1.002418	-3.622171	 26.570000	-6.900585	 177.972300	 1.918731	-45.969540	 1.126053	 173.319000	 81.871940	-176.729600	-2.356984	 33.519830	-0.113773	-42.647620	-43.891900	 168.666300	 10.490750	-33.209770	 6.216856	-64.564800	 82.234050	 70.122020	 2.350686	 34.163890	 0.130531	-42.056770	 7.358084	 2.056823	-2.145718	 1.551303	-0.896433	 1.547375	-0.532851	 1.127635	-94.493160	 58.861140	 174.223200	 0.322555	 17.859090	-41.637210	 22.831040	-6.797082	-13.533200	-11.416380	-6.054090	-8.790034	-4.824158	 20.278220	-2.831587	-3.818985	 22.264750	 2.139211	-4.766103	 6.040870	 0.117804	 0.030138	-5.294293	 0.346089	-0.242146	 3.108213	 2.606625	 89.430260	 62.039740	 179.149000	-16.882440	 53.288850	 7.627392	-31.569610	-6.909820	 13.538240	 6.840766	 9.470230	-4.628625	 6.189463	 18.678810	-0.718645	 2.579246	 38.412170	-7.600330	 1.850392	 18.169330	 2.955056
-0.072880	-2.498744	 1.131037	 6.953416	 1.036454	-3.743968	 25.287490	-2.750051	 175.768300	 2.339583	-43.935650	 1.378871	-168.647700	 82.541830	 165.651000	-2.323582	 37.557840	-0.212000	-42.491330	-47.937060	 165.775200	 11.170520	-31.941240	 6.377057	-64.543750	 81.430030	 69.547070	 2.336175	 35.977520	 0.174298	-46.080490	 7.329532	 2.140815	-2.359984	 1.922588	-0.952892	 1.876245	-1.115869	 1.231093	-94.538100	 58.997490	 174.105300	-1.573742	 17.109100	-41.994400	 25.397850	-8.203309	-14.563480	-12.232550	-7.179904	-9.642356	-4.854144	 20.530110	-3.079674	-3.782064	 22.724470	 2.101726	-4.720776	 6.569745	 0.086236	 0.127284	-5.421484	 0.330667	 0.204468	 2.944003	 2.304758	 89.357650	 61.875820	 178.979700	-15.245650	 54.027670	 4.139000	-35.805480	-8.327559	 14.553430	 7.188878	 8.689816	-6.278263	 6.169863	 15.688770	-0.615780	 2.908559	 34.880120	-7.879056	 2.457923	 15.176580	 2.715561
-0.083448	-2.599462	 1.117971	 7.329806	 0.721130	-2.753021	 24.013370	 3.080142	 171.685300	 2.109482	-39.912600	 1.127380	-104.931000	 84.641890	 103.804900	-2.180528	 47.875390	-0.511250	-40.125190	-47.284900	 165.188200	 7.783002	-31.463270	 4.482108	-38.776380	 73.988280	 48.925320	 2.340517	 35.460310	 0.161666	-48.500520	 7.280675	 1.306272	-2.814116	 1.970720	-1.365890	 2.180804	-1.241886	 1.363566	-94.463360	 59.346400	 174.207000	-2.878568	 17.008640	-41.293540	 27.602380	-9.655054	-15.459920	-13.431180	-8.085838	-10.472080	-4.891150	 20.698810	-3.347813	-3.755402	 23.053210	 2.074644	-4.643563	 7.461396	 0.031967	 0.248346	-5.476598	 0.246826	 0.782383	 2.945442	 2.355336	 89.353970	 61.456380	 178.986500	-13.807020	 54.264520	 0.943246	-39.851810	-9.790286	 15.433510	 7.242150	 7.548605	-7.407492	 6.258643	 12.289720	-0.032472	 3.115474	 32.449790	-8.050231	 3.072922	 12.036720	 2.502543
-0.095094	-2.709426	 1.110501	 8.929383	-0.310158	-1.280976	 23.134870	 6.703835	 166.208900	-0.040051	-40.818930	-0.256746	-34.149570	 74.773390	 39.531960	-1.741875	 61.705840	-1.143429	-37.357120	-43.165420	 167.220400	 7.618414	-35.346090	 4.868904	-31.216690	 64.415240	 46.760180	 2.337410	 35.831870	 0.170731	-48.270770	 7.594548	 0.083877	-3.634623	 1.903423	-2.039605	 2.255346	-1.013734	 1.515713	-94.350760	 59.102360	 174.488300	-2.396850	 16.935330	-39.892880	 29.078020	-10.820640	-16.078460	-13.786140	-6.579412	-9.921475	-4.875513	 21.029750	-3.366767	-3.717916	 23.510350	 2.036600	-4.548700	 8.540872	-0.035521	 0.386124	-5.384969	 0.279242	 1.249153	 3.302622	 2.583653	 89.153180	 61.273650	 178.520500	-12.576250	 54.101360	-0.544634	-41.937390	-10.956020	 16.041960	 7.323794	 6.848213	-6.246541	 6.352249	 9.380798	 0.427537	 3.342635	 29.576200	-8.234041	 3.512482	 9.731484	 2.369437
